<svg xmlns="http://www.w3.org/2000/svg" viewBox="0 0 116.67 119.25"><title>&#x8D44;&#x6E90; 91</title><path d="M56.63 119.25c-22.88-1.14-41.15-12.19-52.31-34.5A73.35 73.35 0 0 1 .27 73.53c-.23-.75-.63-1.86.42-2.15.88-.23 1 .88 1.26 1.55C7.84 90.87 20.57 101.74 38 107.55a61.89 61.89 0 0 0 35.35 1.37c16.25-4.15 29.42-12.77 38-27.6.52-.9.85-2.74 2.24-2.07s.28 2.15-.14 3.12c-6.72 15.25-17.62 26.26-33.18 32.63-7.04 2.88-14.35 3.94-23.64 4.25z" fill="#2656aa"/><path d="M2.76 37.93a49.25 49.25 0 0 1 5.75-11.15C21.43 8.21 39.24-1.21 61.82.13c23 1.36 39.65 13.19 50.26 33.6a68.15 68.15 0 0 1 4.28 11.66c.24.78.66 1.91-.22 2.24-1.1.4-1.16-.89-1.39-1.6C109 28.62 96.82 17.65 79.88 11.79a63.24 63.24 0 0 0-42.51 0c-13.84 4.84-25.12 13-32.22 26.25a7.51 7.51 0 0 1-.65 1.06c-.34.44-.65 1.1-1.37.73s-.56-.93-.37-1.9z" fill="#1ca2e9"/><path d="M22 80.27a32.1 32.1 0 0 0 7.54 7.42c21.2 14.83 50.93 11.64 65.09-13.57a41.65 41.65 0 0 0 4.7-12c.15-.71.32-1.64 1.3-1.53s.77 1.07.74 1.79C100.74 78.24 89 94 74.06 99.74a43.27 43.27 0 0 1-51.44-16.1C22 82.8 21.2 82 22 80.27z" fill="#2656aa"/><path d="M95 37.88c-1.08 0-1.39-.8-1.87-1.31C82.27 25 68.46 21 53.29 22.76c-13.43 1.59-23.47 9.48-30.66 20.86a38 38 0 0 0-5.29 13.08c-.12.62-.26 1.53-1 1.51-1.08 0-.85-1.09-.82-1.76a38.91 38.91 0 0 1 6.82-20.51c7.61-11.35 18.34-18.14 31.9-19.32 16.16-1.39 29.33 4.78 39.1 17.85.71.99 1.82 1.89 1.66 3.41z" fill="#1ca2e9"/><path d="M58.42 70.3a11 11 0 0 1-11-10.63A11.4 11.4 0 0 1 58.26 48.5c5.65-.11 11 5.26 11 11a11 11 0 0 1-10.84 10.8z" fill="#2656aa"/><path d="M46.72 82.28a37 37 0 0 0 8.94 1.51c15.16.21 28.15-13.66 25.86-30.47-.21-1.56-.55-3.1-.8-4.66-.07-.47-.26-1.09.28-1.34.76-.36 1 .4 1.27.86a24 24 0 0 1 2.38 7.58c2 12.81-6.4 25.44-18.91 29.12a26.76 26.76 0 0 1-16.58-.49c-1.31-.39-1.31-.39-2.44-2.11z" fill="#2656aa"/><path d="M36 71.81c-5.74-5.88-6-21.63 3.9-31.2 9.12-8.83 23.49-9.54 30.59-3.74-11.22-3.36-20.67-1.5-28.35 6.6S33.23 61.26 36 71.81z" fill="#1ca2e9"/></svg>